<mxfile host="65bd71144e">
    <diagram id="0ZwW-vUITOqkvyoN0IJ5" name="Page-1">
        <mxGraphModel dx="5347" dy="934" grid="1" gridSize="10" guides="0" tooltips="1" connect="1" arrows="1" fold="1" page="1" pageScale="3" pageWidth="1169" pageHeight="827" background="#ffffff" math="0" shadow="0">
            <root>
                <mxCell id="0"/>
                <mxCell id="1" parent="0"/>
                <mxCell id="4" style="edgeStyle=none;html=1;entryX=0.5;entryY=0;entryDx=0;entryDy=0;fontSize=18;strokeColor=#050505;strokeWidth=3;" parent="1" source="2" target="3" edge="1">
                    <mxGeometry relative="1" as="geometry"/>
                </mxCell>
                <mxCell id="2" value="&lt;span style=&quot;font-size: 18px&quot;&gt;机器人开始运动&lt;/span&gt;" style="ellipse;whiteSpace=wrap;html=1;fillColor=#FAFAFA;fontColor=#030303;strokeWidth=3;strokeColor=#030303;" parent="1" vertex="1">
                    <mxGeometry x="90" y="80" width="140" height="80" as="geometry"/>
                </mxCell>
                <mxCell id="3" value="&lt;font style=&quot;font-size: 16px&quot;&gt;运动到&lt;br&gt;基准点0&lt;br&gt;&lt;/font&gt;" style="rounded=1;whiteSpace=wrap;html=1;fontSize=12;arcSize=20;fillColor=#FAFAFA;strokeColor=#030303;fontColor=#030303;strokeWidth=3;" parent="1" vertex="1">
                    <mxGeometry x="100" y="260" width="120" height="60" as="geometry"/>
                </mxCell>
                <mxCell id="5" value="&lt;span style=&quot;font-size: 16px&quot;&gt;相机开始拍照&lt;/span&gt;" style="rounded=1;whiteSpace=wrap;html=1;fontSize=12;arcSize=20;fillColor=#FAFAFA;strokeColor=#030303;fontColor=#030303;strokeWidth=3;" parent="1" vertex="1">
                    <mxGeometry x="100" y="390" width="120" height="60" as="geometry"/>
                </mxCell>
                <mxCell id="6" value="&lt;span style=&quot;font-size: 18px&quot;&gt;&lt;b&gt;开始&lt;/b&gt;&lt;/span&gt;" style="ellipse;whiteSpace=wrap;html=1;fillColor=#FAFAFA;fontColor=#030303;strokeWidth=3;strokeColor=#008C46;" parent="1" vertex="1">
                    <mxGeometry x="-840" y="400" width="140" height="80" as="geometry"/>
                </mxCell>
                <mxCell id="8" value="&lt;font style=&quot;font-size: 16px&quot;&gt;调用对应算法Base&lt;br&gt;进行计算&lt;/font&gt;" style="rounded=1;whiteSpace=wrap;html=1;fontSize=12;arcSize=20;fillColor=#FAFAFA;strokeColor=#0000F5;fontColor=#030303;strokeWidth=3;" parent="1" vertex="1">
                    <mxGeometry x="-60" y="700" width="120" height="60" as="geometry"/>
                </mxCell>
                <mxCell id="9" style="edgeStyle=none;html=1;entryX=0.5;entryY=0;entryDx=0;entryDy=0;fontSize=18;strokeColor=#050505;strokeWidth=3;exitX=0.5;exitY=1;exitDx=0;exitDy=0;" parent="1" source="3" target="5" edge="1">
                    <mxGeometry relative="1" as="geometry">
                        <mxPoint x="210" y="300" as="sourcePoint"/>
                        <mxPoint x="210" y="400" as="targetPoint"/>
                    </mxGeometry>
                </mxCell>
                <mxCell id="12" value="&lt;font style=&quot;font-size: 16px&quot;&gt;运动到&lt;br&gt;接车顶点&lt;span style=&quot;color: rgba(0 , 0 , 0 , 0) ; font-family: monospace ; font-size: 0px&quot;&gt;%3CmxGraphModel%3E%3Croot%3E%3CmxCell%20id%3D%220%22%2F%3E%3CmxCell%20id%3D%221%22%20parent%3D%220%22%2F%3E%3CmxCell%20id%3D%222%22%20value%3D%22%26lt%3Bfont%20style%3D%26quot%3Bfont-size%3A%2016px%26quot%3B%26gt%3B%E8%BF%90%E5%8A%A8%E5%88%B0%26lt%3Bbr%26gt%3B%E5%9F%BA%E5%87%86%E7%82%B90%26lt%3Bbr%26gt%3B%26lt%3B%2Ffont%26gt%3B%22%20style%3D%22rounded%3D1%3BwhiteSpace%3Dwrap%3Bhtml%3D1%3BfontSize%3D12%3BarcSize%3D20%3BfillColor%3D%23FAFAFA%3BstrokeColor%3D%23030303%3BfontColor%3D%23030303%3BstrokeWidth%3D3%3B%22%20vertex%3D%221%22%20parent%3D%221%22%3E%3CmxGeometry%20x%3D%22100%22%20y%3D%22260%22%20width%3D%22120%22%20height%3D%2260%22%20as%3D%22geometry%22%2F%3E%3C%2FmxCell%3E%3C%2Froot%3E%3C%2FmxGraphModel%3E&lt;/span&gt;&lt;br&gt;&lt;/font&gt;" style="rounded=1;whiteSpace=wrap;html=1;fontSize=12;arcSize=20;fillColor=#FAFAFA;strokeColor=#030303;fontColor=#030303;strokeWidth=3;" vertex="1" parent="1">
                    <mxGeometry x="460" y="260" width="120" height="60" as="geometry"/>
                </mxCell>
                <mxCell id="13" value="&lt;font&gt;&lt;span style=&quot;font-size: 16px&quot;&gt;运动到&lt;/span&gt;&lt;br&gt;&lt;span style=&quot;font-size: 16px&quot;&gt;穿梭机锁紧孔（矩形块）&lt;/span&gt;&lt;span style=&quot;font-size: 0px ; color: rgba(0 , 0 , 0 , 0) ; font-family: monospace&quot;&gt;%3CmxGraphModel%3E%3Croot%3E%3CmxCell%20id%3D%220%22%2F%3E%3CmxCell%20id%3D%221%22%20parent%3D%220%22%2F%3E%3CmxCell%20id%3D%222%22%20value%3D%22%26lt%3Bfont%20style%3D%26quot%3Bfont-size%3A%2016px%26quot%3B%26gt%3B%E8%BF%90%E5%8A%A8%E5%88%B0%26lt%3Bbr%26gt%3B%E5%9F%BA%E5%87%86%E7%82%B90%26lt%3Bbr%26gt%3B%26lt%3B%2Ffont%26gt%3B%22%20style%3D%22rounded%3D1%3BwhiteSpace%3Dwrap%3Bhtml%3D1%3BfontSize%3D12%3BarcSize%3D20%3BfillColor%3D%23FAFAFA%3BstrokeColor%3D%23030303%3BfontColor%3D%23030303%3BstrokeWidth%3D3%3B%22%20vertex%3D%221%22%20parent%3D%221%22%3E%3CmxGeometry%20x%3D%22100%22%20y%3D%22260%22%20width%3D%22120%22%20height%3D%2260%22%20as%3D%22geometry%22%2F%3E%3C%2FmxCell%3E%3C%2Froot%3E%3C%2FmxGraphModel%3&lt;/span&gt;&lt;br&gt;&lt;/font&gt;" style="rounded=1;whiteSpace=wrap;html=1;fontSize=12;arcSize=20;fillColor=#FAFAFA;strokeColor=#030303;fontColor=#030303;strokeWidth=3;" vertex="1" parent="1">
                    <mxGeometry x="280" y="260" width="120" height="60" as="geometry"/>
                </mxCell>
                <mxCell id="14" value="&lt;font&gt;&lt;span style=&quot;font-size: 16px&quot;&gt;运动到&lt;/span&gt;&lt;br&gt;&lt;span style=&quot;font-size: 16px&quot;&gt;锁紧感应块&lt;/span&gt;&lt;span style=&quot;font-size: 0px ; color: rgba(0 , 0 , 0 , 0) ; font-family: monospace&quot;&gt;%3CmxGraphModel%3E%3Croot%3E%3CmxCell%20id%3D%220%22%2F%3E%3CmxCell%20id%3D%221%22%20parent%3D%220%22%2F%3E%3CmxCell%20id%3D%222%22%20value%3D%22%26lt%3Bfont%20style%3D%26quot%3Bfont-size%3A%2016px%26quot%3B%26gt%3B%E8%BF%90%E5%8A%A8%E5%88%B0%26lt%3Bbr%26gt%3B%E5%9F%BA%E5%87%86%E7%82%B90%26lt%3Bbr%26gt%3B%26lt%3B%2Ffont%26gt%3B%22%20style%3D%22rounded%3D1%3BwhiteSpace%3Dwrap%3Bhtml%3D1%3BfontSize%3D12%3BarcSize%3D20%3BfillColor%3D%23FAFAFA%3BstrokeColor%3D%23030303%3BfontColor%3D%23030303%3BstrokeWidth%3D3%3B%22%20vertex%3D%221%22%20parent%3D%221%22%3E%3CmxGeometry%20x%3D%22100%22%20y%3D%22260%22%20width%3D%22120%22%20height%3D%2260%22%20as%3D%22geometry%22%2F%3E%3C%2FmxCell%3E%3C%2Froot%3E%3C%2FmxGraphModel%3&lt;/span&gt;&lt;br&gt;&lt;/font&gt;" style="rounded=1;whiteSpace=wrap;html=1;fontSize=12;arcSize=20;fillColor=#FAFAFA;strokeColor=#030303;fontColor=#030303;strokeWidth=3;" vertex="1" parent="1">
                    <mxGeometry x="640" y="260" width="120" height="60" as="geometry"/>
                </mxCell>
                <mxCell id="15" value="&lt;font style=&quot;font-size: 16px&quot;&gt;调用对应算法A&lt;br&gt;进行计算&lt;/font&gt;" style="rounded=1;whiteSpace=wrap;html=1;fontSize=12;arcSize=20;fillColor=#FAFAFA;strokeColor=#0000F5;fontColor=#030303;strokeWidth=3;" vertex="1" parent="1">
                    <mxGeometry x="120" y="700" width="120" height="60" as="geometry"/>
                </mxCell>
                <mxCell id="16" value="&lt;font style=&quot;font-size: 16px&quot;&gt;调用对应算法B&lt;br&gt;进行计算&lt;/font&gt;" style="rounded=1;whiteSpace=wrap;html=1;fontSize=12;arcSize=20;fillColor=#FAFAFA;strokeColor=#0000F5;fontColor=#030303;strokeWidth=3;" vertex="1" parent="1">
                    <mxGeometry x="300" y="700" width="120" height="60" as="geometry"/>
                </mxCell>
                <mxCell id="17" value="&lt;span style=&quot;font-size: 16px&quot;&gt;相机开始拍照&lt;/span&gt;" style="rounded=1;whiteSpace=wrap;html=1;fontSize=12;arcSize=20;fillColor=#FAFAFA;strokeColor=#030303;fontColor=#030303;strokeWidth=3;" vertex="1" parent="1">
                    <mxGeometry x="280" y="390" width="120" height="60" as="geometry"/>
                </mxCell>
                <mxCell id="18" style="edgeStyle=none;html=1;entryX=0.5;entryY=0;entryDx=0;entryDy=0;fontSize=18;strokeColor=#050505;strokeWidth=3;exitX=0.5;exitY=1;exitDx=0;exitDy=0;" edge="1" parent="1" target="17">
                    <mxGeometry relative="1" as="geometry">
                        <mxPoint x="340" y="320" as="sourcePoint"/>
                        <mxPoint x="390" y="400" as="targetPoint"/>
                    </mxGeometry>
                </mxCell>
                <mxCell id="20" value="&lt;span style=&quot;font-size: 16px&quot;&gt;相机开始拍照&lt;/span&gt;" style="rounded=1;whiteSpace=wrap;html=1;fontSize=12;arcSize=20;fillColor=#FAFAFA;strokeColor=#030303;fontColor=#030303;strokeWidth=3;" vertex="1" parent="1">
                    <mxGeometry x="460" y="390" width="120" height="60" as="geometry"/>
                </mxCell>
                <mxCell id="21" style="edgeStyle=none;html=1;entryX=0.5;entryY=0;entryDx=0;entryDy=0;fontSize=18;strokeColor=#050505;strokeWidth=3;exitX=0.5;exitY=1;exitDx=0;exitDy=0;" edge="1" parent="1" target="20">
                    <mxGeometry relative="1" as="geometry">
                        <mxPoint x="520" y="320" as="sourcePoint"/>
                        <mxPoint x="570" y="400" as="targetPoint"/>
                    </mxGeometry>
                </mxCell>
                <mxCell id="23" value="&lt;font style=&quot;font-size: 16px&quot;&gt;调用对应算法C&lt;br&gt;进行计算&lt;/font&gt;" style="rounded=1;whiteSpace=wrap;html=1;fontSize=12;arcSize=20;fillColor=#FAFAFA;strokeColor=#0000F5;fontColor=#030303;strokeWidth=3;" vertex="1" parent="1">
                    <mxGeometry x="480" y="700" width="120" height="60" as="geometry"/>
                </mxCell>
                <mxCell id="28" value="&lt;span style=&quot;font-size: 16px&quot;&gt;相机开始拍照&lt;/span&gt;" style="rounded=1;whiteSpace=wrap;html=1;fontSize=12;arcSize=20;fillColor=#FAFAFA;strokeColor=#030303;fontColor=#030303;strokeWidth=3;" vertex="1" parent="1">
                    <mxGeometry x="640" y="390" width="120" height="60" as="geometry"/>
                </mxCell>
                <mxCell id="29" style="edgeStyle=none;html=1;entryX=0.5;entryY=0;entryDx=0;entryDy=0;fontSize=18;strokeColor=#050505;strokeWidth=3;exitX=0.5;exitY=1;exitDx=0;exitDy=0;" edge="1" parent="1" target="28">
                    <mxGeometry relative="1" as="geometry">
                        <mxPoint x="700" y="320" as="sourcePoint"/>
                        <mxPoint x="750" y="400" as="targetPoint"/>
                    </mxGeometry>
                </mxCell>
                <mxCell id="32" value="" style="curved=1;endArrow=classic;html=1;strokeColor=#080808;spacing=5;targetPerimeterSpacing=5;sourcePerimeterSpacing=5;strokeWidth=3;entryX=0;entryY=0.5;entryDx=0;entryDy=0;exitX=1;exitY=0.5;exitDx=0;exitDy=0;" edge="1" parent="1" source="5" target="13">
                    <mxGeometry width="50" height="50" relative="1" as="geometry">
                        <mxPoint x="-10" y="380" as="sourcePoint"/>
                        <mxPoint x="40" y="330" as="targetPoint"/>
                        <Array as="points">
                            <mxPoint x="270" y="390"/>
                            <mxPoint x="200" y="320"/>
                        </Array>
                    </mxGeometry>
                </mxCell>
                <mxCell id="33" value="" style="curved=1;endArrow=classic;html=1;strokeColor=#080808;spacing=5;targetPerimeterSpacing=5;sourcePerimeterSpacing=5;strokeWidth=3;entryX=0;entryY=0.5;entryDx=0;entryDy=0;exitX=1;exitY=0.5;exitDx=0;exitDy=0;" edge="1" parent="1">
                    <mxGeometry width="50" height="50" relative="1" as="geometry">
                        <mxPoint x="400" y="420" as="sourcePoint"/>
                        <mxPoint x="460" y="290" as="targetPoint"/>
                        <Array as="points">
                            <mxPoint x="450" y="390"/>
                            <mxPoint x="380" y="320"/>
                        </Array>
                    </mxGeometry>
                </mxCell>
                <mxCell id="34" value="" style="curved=1;endArrow=classic;html=1;strokeColor=#080808;spacing=5;targetPerimeterSpacing=5;sourcePerimeterSpacing=5;strokeWidth=3;entryX=0;entryY=0.5;entryDx=0;entryDy=0;exitX=1;exitY=0.5;exitDx=0;exitDy=0;" edge="1" parent="1">
                    <mxGeometry width="50" height="50" relative="1" as="geometry">
                        <mxPoint x="580" y="420" as="sourcePoint"/>
                        <mxPoint x="640" y="290" as="targetPoint"/>
                        <Array as="points">
                            <mxPoint x="630" y="390"/>
                            <mxPoint x="560" y="320"/>
                        </Array>
                    </mxGeometry>
                </mxCell>
                <mxCell id="35" value="&lt;span style=&quot;font-size: 18px&quot;&gt;机器人回Home点&lt;/span&gt;" style="ellipse;whiteSpace=wrap;html=1;fillColor=#FAFAFA;fontColor=#030303;strokeWidth=3;strokeColor=#030303;" vertex="1" parent="1">
                    <mxGeometry x="630" y="80" width="140" height="80" as="geometry"/>
                </mxCell>
                <mxCell id="36" style="edgeStyle=none;html=1;entryX=0.5;entryY=1;entryDx=0;entryDy=0;fontSize=18;strokeColor=#050505;strokeWidth=3;exitX=0.5;exitY=0;exitDx=0;exitDy=0;" edge="1" parent="1" source="14" target="35">
                    <mxGeometry relative="1" as="geometry">
                        <mxPoint x="650" y="180" as="sourcePoint"/>
                        <mxPoint x="650" y="250" as="targetPoint"/>
                    </mxGeometry>
                </mxCell>
                <mxCell id="37" value="" style="shape=table;html=1;whiteSpace=wrap;startSize=0;container=1;collapsible=0;childLayout=tableLayout;fillColor=#FCFCFC;strokeColor=#080808;" vertex="1" parent="1">
                    <mxGeometry x="40" y="550" width="270" height="80" as="geometry"/>
                </mxCell>
                <mxCell id="38" value="" style="shape=partialRectangle;html=1;whiteSpace=wrap;collapsible=0;dropTarget=0;pointerEvents=0;fillColor=none;top=0;left=0;bottom=0;right=0;points=[[0,0.5],[1,0.5]];portConstraint=eastwest;" vertex="1" parent="37">
                    <mxGeometry width="270" height="40" as="geometry"/>
                </mxCell>
                <mxCell id="39" value="&lt;font color=&quot;#ff0000&quot; size=&quot;1&quot;&gt;&lt;b style=&quot;font-size: 18px&quot;&gt;队头出队&lt;/b&gt;&lt;/font&gt;" style="shape=partialRectangle;html=1;whiteSpace=wrap;connectable=0;fillColor=none;top=0;left=0;bottom=0;right=0;overflow=hidden;pointerEvents=1;" vertex="1" parent="38">
                    <mxGeometry width="91" height="40" as="geometry">
                        <mxRectangle width="91" height="40" as="alternateBounds"/>
                    </mxGeometry>
                </mxCell>
                <mxCell id="40" value="" style="shape=partialRectangle;html=1;whiteSpace=wrap;connectable=0;fillColor=none;top=0;left=0;bottom=0;right=0;overflow=hidden;pointerEvents=1;" vertex="1" parent="38">
                    <mxGeometry x="91" width="88" height="40" as="geometry">
                        <mxRectangle width="88" height="40" as="alternateBounds"/>
                    </mxGeometry>
                </mxCell>
                <mxCell id="41" value="" style="shape=partialRectangle;html=1;whiteSpace=wrap;connectable=0;fillColor=none;top=0;left=0;bottom=0;right=0;overflow=hidden;pointerEvents=1;" vertex="1" parent="38">
                    <mxGeometry x="179" width="91" height="40" as="geometry">
                        <mxRectangle width="91" height="40" as="alternateBounds"/>
                    </mxGeometry>
                </mxCell>
                <mxCell id="46" value="" style="shape=partialRectangle;html=1;whiteSpace=wrap;collapsible=0;dropTarget=0;pointerEvents=0;fillColor=none;top=0;left=0;bottom=0;right=0;points=[[0,0.5],[1,0.5]];portConstraint=eastwest;" vertex="1" parent="37">
                    <mxGeometry y="40" width="270" height="40" as="geometry"/>
                </mxCell>
                <mxCell id="47" value="" style="shape=partialRectangle;html=1;whiteSpace=wrap;connectable=0;fillColor=none;top=0;left=0;bottom=0;right=0;overflow=hidden;pointerEvents=1;" vertex="1" parent="46">
                    <mxGeometry width="91" height="40" as="geometry">
                        <mxRectangle width="91" height="40" as="alternateBounds"/>
                    </mxGeometry>
                </mxCell>
                <mxCell id="48" value="" style="shape=partialRectangle;html=1;whiteSpace=wrap;connectable=0;fillColor=none;top=0;left=0;bottom=0;right=0;overflow=hidden;pointerEvents=1;" vertex="1" parent="46">
                    <mxGeometry x="91" width="88" height="40" as="geometry">
                        <mxRectangle width="88" height="40" as="alternateBounds"/>
                    </mxGeometry>
                </mxCell>
                <mxCell id="49" value="" style="shape=partialRectangle;html=1;whiteSpace=wrap;connectable=0;fillColor=none;top=0;left=0;bottom=0;right=0;overflow=hidden;pointerEvents=1;" vertex="1" parent="46">
                    <mxGeometry x="179" width="91" height="40" as="geometry">
                        <mxRectangle width="91" height="40" as="alternateBounds"/>
                    </mxGeometry>
                </mxCell>
                <mxCell id="54" value="" style="shape=table;html=1;whiteSpace=wrap;startSize=0;container=1;collapsible=0;childLayout=tableLayout;fillColor=#FCFCFC;strokeColor=#080808;" vertex="1" parent="1">
                    <mxGeometry x="310" y="550" width="300" height="80" as="geometry"/>
                </mxCell>
                <mxCell id="55" value="" style="shape=partialRectangle;html=1;whiteSpace=wrap;collapsible=0;dropTarget=0;pointerEvents=0;fillColor=none;top=0;left=0;bottom=0;right=0;points=[[0,0.5],[1,0.5]];portConstraint=eastwest;" vertex="1" parent="54">
                    <mxGeometry width="300" height="40" as="geometry"/>
                </mxCell>
                <mxCell id="56" value="" style="shape=partialRectangle;html=1;whiteSpace=wrap;connectable=0;fillColor=none;top=0;left=0;bottom=0;right=0;overflow=hidden;pointerEvents=1;" vertex="1" parent="55">
                    <mxGeometry width="100" height="40" as="geometry">
                        <mxRectangle width="100" height="40" as="alternateBounds"/>
                    </mxGeometry>
                </mxCell>
                <mxCell id="57" value="" style="shape=partialRectangle;html=1;whiteSpace=wrap;connectable=0;fillColor=none;top=0;left=0;bottom=0;right=0;overflow=hidden;pointerEvents=1;" vertex="1" parent="55">
                    <mxGeometry x="100" width="100" height="40" as="geometry">
                        <mxRectangle width="100" height="40" as="alternateBounds"/>
                    </mxGeometry>
                </mxCell>
                <mxCell id="58" value="&lt;font color=&quot;#ff0000&quot; size=&quot;1&quot;&gt;&lt;b style=&quot;font-size: 18px&quot;&gt;队尾入队&lt;/b&gt;&lt;/font&gt;" style="shape=partialRectangle;html=1;whiteSpace=wrap;connectable=0;fillColor=none;top=0;left=0;bottom=0;right=0;overflow=hidden;pointerEvents=1;strokeColor=default;startSize=0;" vertex="1" parent="55">
                    <mxGeometry x="200" width="100" height="40" as="geometry">
                        <mxRectangle width="100" height="40" as="alternateBounds"/>
                    </mxGeometry>
                </mxCell>
                <mxCell id="59" value="" style="shape=partialRectangle;html=1;whiteSpace=wrap;collapsible=0;dropTarget=0;pointerEvents=0;fillColor=none;top=0;left=0;bottom=0;right=0;points=[[0,0.5],[1,0.5]];portConstraint=eastwest;" vertex="1" parent="54">
                    <mxGeometry y="40" width="300" height="40" as="geometry"/>
                </mxCell>
                <mxCell id="60" value="" style="shape=partialRectangle;html=1;whiteSpace=wrap;connectable=0;fillColor=none;top=0;left=0;bottom=0;right=0;overflow=hidden;pointerEvents=1;" vertex="1" parent="59">
                    <mxGeometry width="100" height="40" as="geometry">
                        <mxRectangle width="100" height="40" as="alternateBounds"/>
                    </mxGeometry>
                </mxCell>
                <mxCell id="61" value="" style="shape=partialRectangle;html=1;whiteSpace=wrap;connectable=0;fillColor=none;top=0;left=0;bottom=0;right=0;overflow=hidden;pointerEvents=1;" vertex="1" parent="59">
                    <mxGeometry x="100" width="100" height="40" as="geometry">
                        <mxRectangle width="100" height="40" as="alternateBounds"/>
                    </mxGeometry>
                </mxCell>
                <mxCell id="62" value="" style="shape=partialRectangle;html=1;whiteSpace=wrap;connectable=0;fillColor=none;top=0;left=0;bottom=0;right=0;overflow=hidden;pointerEvents=1;" vertex="1" parent="59">
                    <mxGeometry x="200" width="100" height="40" as="geometry">
                        <mxRectangle width="100" height="40" as="alternateBounds"/>
                    </mxGeometry>
                </mxCell>
                <mxCell id="63" value="" style="curved=1;endArrow=classic;html=1;strokeColor=#0000FF;spacing=5;targetPerimeterSpacing=5;sourcePerimeterSpacing=5;strokeWidth=3;entryX=0.857;entryY=-0.005;entryDx=0;entryDy=0;exitX=0.5;exitY=1;exitDx=0;exitDy=0;entryPerimeter=0;" edge="1" parent="1" source="5" target="55">
                    <mxGeometry width="50" height="50" relative="1" as="geometry">
                        <mxPoint x="230" y="570" as="sourcePoint"/>
                        <mxPoint x="290" y="440" as="targetPoint"/>
                        <Array as="points">
                            <mxPoint x="120" y="520"/>
                        </Array>
                    </mxGeometry>
                </mxCell>
                <mxCell id="64" value="" style="curved=1;endArrow=classic;html=1;strokeColor=#0000FF;spacing=5;targetPerimeterSpacing=5;sourcePerimeterSpacing=5;strokeWidth=3;entryX=0.846;entryY=0.115;entryDx=0;entryDy=0;exitX=0.5;exitY=1;exitDx=0;exitDy=0;entryPerimeter=0;" edge="1" parent="1" source="17" target="55">
                    <mxGeometry width="50" height="50" relative="1" as="geometry">
                        <mxPoint x="260" y="440" as="sourcePoint"/>
                        <mxPoint x="727.0999999999999" y="639.8" as="targetPoint"/>
                        <Array as="points">
                            <mxPoint x="320" y="520"/>
                        </Array>
                    </mxGeometry>
                </mxCell>
                <mxCell id="65" value="" style="curved=1;endArrow=classic;html=1;strokeColor=#0000FF;spacing=5;targetPerimeterSpacing=5;sourcePerimeterSpacing=5;strokeWidth=3;entryX=0.843;entryY=-0.105;entryDx=0;entryDy=0;exitX=0.5;exitY=1;exitDx=0;exitDy=0;entryPerimeter=0;" edge="1" parent="1" source="20" target="55">
                    <mxGeometry width="50" height="50" relative="1" as="geometry">
                        <mxPoint x="470" y="450" as="sourcePoint"/>
                        <mxPoint x="753.8000000000002" y="654.5999999999999" as="targetPoint"/>
                        <Array as="points">
                            <mxPoint x="500" y="490"/>
                            <mxPoint x="563" y="520"/>
                        </Array>
                    </mxGeometry>
                </mxCell>
                <mxCell id="66" value="" style="curved=1;endArrow=classic;html=1;strokeColor=#0000FF;spacing=5;targetPerimeterSpacing=5;sourcePerimeterSpacing=5;strokeWidth=3;entryX=0.838;entryY=0.015;entryDx=0;entryDy=0;exitX=0.5;exitY=1;exitDx=0;exitDy=0;entryPerimeter=0;" edge="1" parent="1" source="28" target="55">
                    <mxGeometry width="50" height="50" relative="1" as="geometry">
                        <mxPoint x="710" y="454.2" as="sourcePoint"/>
                        <mxPoint x="812.9000000000001" y="650" as="targetPoint"/>
                        <Array as="points">
                            <mxPoint x="700" y="500"/>
                        </Array>
                    </mxGeometry>
                </mxCell>
                <mxCell id="67" value="" style="curved=1;endArrow=classic;html=1;strokeColor=#0000FF;spacing=5;targetPerimeterSpacing=5;sourcePerimeterSpacing=5;strokeWidth=3;entryX=0.5;entryY=0;entryDx=0;entryDy=0;exitX=0;exitY=0.5;exitDx=0;exitDy=0;" edge="1" parent="1" source="46" target="8">
                    <mxGeometry width="50" height="50" relative="1" as="geometry">
                        <mxPoint x="1.4499999999999886" y="630" as="sourcePoint"/>
                        <mxPoint x="468.5499999999999" y="829.8" as="targetPoint"/>
                        <Array as="points"/>
                    </mxGeometry>
                </mxCell>
                <mxCell id="69" value="" style="curved=1;endArrow=classic;html=1;strokeColor=#0000FF;spacing=5;targetPerimeterSpacing=5;sourcePerimeterSpacing=5;strokeWidth=3;entryX=0.5;entryY=0;entryDx=0;entryDy=0;exitX=0;exitY=0.5;exitDx=0;exitDy=0;" edge="1" parent="1" source="46" target="15">
                    <mxGeometry width="50" height="50" relative="1" as="geometry">
                        <mxPoint x="190" y="750" as="sourcePoint"/>
                        <mxPoint x="110" y="860" as="targetPoint"/>
                        <Array as="points">
                            <mxPoint x="10" y="680"/>
                        </Array>
                    </mxGeometry>
                </mxCell>
                <mxCell id="70" value="" style="curved=1;endArrow=classic;html=1;strokeColor=#0000FF;spacing=5;targetPerimeterSpacing=5;sourcePerimeterSpacing=5;strokeWidth=3;entryX=0.5;entryY=0;entryDx=0;entryDy=0;exitX=0;exitY=0.5;exitDx=0;exitDy=0;" edge="1" parent="1" source="46" target="16">
                    <mxGeometry width="50" height="50" relative="1" as="geometry">
                        <mxPoint x="200" y="710" as="sourcePoint"/>
                        <mxPoint x="300" y="820" as="targetPoint"/>
                        <Array as="points">
                            <mxPoint x="20" y="670"/>
                            <mxPoint x="190" y="680"/>
                        </Array>
                    </mxGeometry>
                </mxCell>
                <mxCell id="71" value="" style="curved=1;endArrow=classic;html=1;strokeColor=#0000FF;spacing=5;targetPerimeterSpacing=5;sourcePerimeterSpacing=5;strokeWidth=3;entryX=0.5;entryY=0;entryDx=0;entryDy=0;exitX=0;exitY=0.5;exitDx=0;exitDy=0;" edge="1" parent="1" source="46" target="23">
                    <mxGeometry width="50" height="50" relative="1" as="geometry">
                        <mxPoint x="230" y="690" as="sourcePoint"/>
                        <mxPoint x="510" y="800" as="targetPoint"/>
                        <Array as="points">
                            <mxPoint x="20" y="670"/>
                            <mxPoint x="360" y="660"/>
                        </Array>
                    </mxGeometry>
                </mxCell>
                <mxCell id="72" value="" style="rounded=1;whiteSpace=wrap;html=1;fontSize=18;fontColor=#FF0000;strokeColor=#080808;fillColor=none;strokeWidth=5;dashed=1;" vertex="1" parent="1">
                    <mxGeometry y="20" width="820" height="340" as="geometry"/>
                </mxCell>
                <mxCell id="73" value="&lt;font color=&quot;#080808&quot;&gt;&lt;b&gt;机器人运动程序&lt;/b&gt;&lt;/font&gt;" style="text;html=1;strokeColor=none;fillColor=none;align=center;verticalAlign=middle;whiteSpace=wrap;rounded=0;dashed=1;fontSize=18;fontColor=#FF0000;" vertex="1" parent="1">
                    <mxGeometry x="310" y="30" width="150" height="30" as="geometry"/>
                </mxCell>
                <mxCell id="74" value="&lt;b&gt;&lt;font color=&quot;#0000ff&quot;&gt;临时存储点云&lt;/font&gt;&lt;/b&gt;" style="text;html=1;strokeColor=none;fillColor=none;align=center;verticalAlign=middle;whiteSpace=wrap;rounded=0;dashed=1;fontSize=18;fontColor=#080808;" vertex="1" parent="1">
                    <mxGeometry x="670" y="520" width="120" height="30" as="geometry"/>
                </mxCell>
                <mxCell id="79" value="&lt;b&gt;&lt;font color=&quot;#0000ff&quot;&gt;算法读取点云&lt;/font&gt;&lt;/b&gt;" style="text;html=1;strokeColor=none;fillColor=none;align=center;verticalAlign=middle;whiteSpace=wrap;rounded=0;dashed=1;fontSize=18;fontColor=#080808;" vertex="1" parent="1">
                    <mxGeometry x="540" y="650" width="120" height="30" as="geometry"/>
                </mxCell>
                <mxCell id="81" value="&lt;b&gt;&lt;font color=&quot;#080808&quot;&gt;作为基准数据存储&lt;/font&gt;&lt;/b&gt;" style="ellipse;whiteSpace=wrap;html=1;rounded=1;fontSize=18;fontColor=#0000FF;strokeColor=#080808;strokeWidth=5;fillColor=none;" vertex="1" parent="1">
                    <mxGeometry x="540" y="820" width="170" height="80" as="geometry"/>
                </mxCell>
                <mxCell id="82" value="&lt;b&gt;&lt;font color=&quot;#080808&quot;&gt;与基准数据比较误差是否超限&lt;/font&gt;&lt;/b&gt;" style="rhombus;whiteSpace=wrap;html=1;rounded=1;fontSize=18;fontColor=#0000FF;strokeColor=#FF0000;strokeWidth=3;fillColor=none;dashed=1;" vertex="1" parent="1">
                    <mxGeometry x="80" y="960" width="310" height="80" as="geometry"/>
                </mxCell>
                <mxCell id="84" value="&lt;b&gt;&lt;font color=&quot;#080808&quot;&gt;是否是第一次检测&lt;/font&gt;&lt;/b&gt;" style="rhombus;whiteSpace=wrap;html=1;rounded=1;fontSize=18;fontColor=#0000FF;strokeColor=#FF0000;strokeWidth=3;fillColor=none;dashed=1;" vertex="1" parent="1">
                    <mxGeometry x="140" y="820" width="200" height="80" as="geometry"/>
                </mxCell>
                <mxCell id="87" value="" style="curved=1;endArrow=classic;html=1;strokeColor=#0000FF;spacing=5;targetPerimeterSpacing=5;sourcePerimeterSpacing=5;strokeWidth=3;entryX=0.5;entryY=0;entryDx=0;entryDy=0;exitX=0.5;exitY=1;exitDx=0;exitDy=0;" edge="1" parent="1" source="8" target="84">
                    <mxGeometry width="50" height="50" relative="1" as="geometry">
                        <mxPoint x="-20" y="830" as="sourcePoint"/>
                        <mxPoint x="-60" y="920" as="targetPoint"/>
                        <Array as="points">
                            <mxPoint x="30" y="830"/>
                        </Array>
                    </mxGeometry>
                </mxCell>
                <mxCell id="88" value="" style="curved=1;endArrow=classic;html=1;strokeColor=#0000FF;spacing=5;targetPerimeterSpacing=5;sourcePerimeterSpacing=5;strokeWidth=3;entryX=0.5;entryY=0;entryDx=0;entryDy=0;exitX=0.5;exitY=1;exitDx=0;exitDy=0;" edge="1" parent="1" source="15" target="84">
                    <mxGeometry width="50" height="50" relative="1" as="geometry">
                        <mxPoint x="240" y="770" as="sourcePoint"/>
                        <mxPoint x="480" y="830" as="targetPoint"/>
                        <Array as="points"/>
                    </mxGeometry>
                </mxCell>
                <mxCell id="89" value="" style="curved=1;endArrow=classic;html=1;strokeColor=#0000FF;spacing=5;targetPerimeterSpacing=5;sourcePerimeterSpacing=5;strokeWidth=3;entryX=0.5;entryY=0;entryDx=0;entryDy=0;exitX=0.5;exitY=1;exitDx=0;exitDy=0;" edge="1" parent="1" source="16" target="84">
                    <mxGeometry width="50" height="50" relative="1" as="geometry">
                        <mxPoint x="380" y="790" as="sourcePoint"/>
                        <mxPoint x="440" y="850" as="targetPoint"/>
                        <Array as="points"/>
                    </mxGeometry>
                </mxCell>
                <mxCell id="90" value="" style="curved=1;endArrow=classic;html=1;strokeColor=#0000FF;spacing=5;targetPerimeterSpacing=5;sourcePerimeterSpacing=5;strokeWidth=3;exitX=0.5;exitY=1;exitDx=0;exitDy=0;" edge="1" parent="1" source="23">
                    <mxGeometry width="50" height="50" relative="1" as="geometry">
                        <mxPoint x="490" y="790" as="sourcePoint"/>
                        <mxPoint x="240" y="823" as="targetPoint"/>
                        <Array as="points">
                            <mxPoint x="460" y="800"/>
                            <mxPoint x="360" y="823"/>
                        </Array>
                    </mxGeometry>
                </mxCell>
                <mxCell id="91" value="" style="curved=1;endArrow=classic;html=1;strokeColor=#FF0000;spacing=5;targetPerimeterSpacing=5;sourcePerimeterSpacing=5;strokeWidth=3;entryX=0;entryY=0.5;entryDx=0;entryDy=0;exitX=1;exitY=0.5;exitDx=0;exitDy=0;" edge="1" parent="1" source="84" target="81">
                    <mxGeometry width="50" height="50" relative="1" as="geometry">
                        <mxPoint x="370" y="900" as="sourcePoint"/>
                        <mxPoint x="360" y="900" as="targetPoint"/>
                        <Array as="points"/>
                    </mxGeometry>
                </mxCell>
                <mxCell id="92" value="&lt;font color=&quot;#ff0000&quot;&gt;&lt;b&gt;是&lt;/b&gt;&lt;/font&gt;" style="text;html=1;strokeColor=none;fillColor=none;align=center;verticalAlign=middle;whiteSpace=wrap;rounded=0;fontSize=18;fontColor=#080808;" vertex="1" parent="1">
                    <mxGeometry x="400" y="820" width="60" height="30" as="geometry"/>
                </mxCell>
                <mxCell id="93" value="" style="curved=1;endArrow=classic;html=1;strokeColor=#FF0000;spacing=5;targetPerimeterSpacing=5;sourcePerimeterSpacing=5;strokeWidth=3;entryX=0.5;entryY=0;entryDx=0;entryDy=0;exitX=0.5;exitY=1;exitDx=0;exitDy=0;" edge="1" parent="1" source="84" target="82">
                    <mxGeometry width="50" height="50" relative="1" as="geometry">
                        <mxPoint x="500" y="920" as="sourcePoint"/>
                        <mxPoint x="380" y="980" as="targetPoint"/>
                        <Array as="points"/>
                    </mxGeometry>
                </mxCell>
                <mxCell id="94" value="&lt;font color=&quot;#ff0000&quot;&gt;&lt;b&gt;否&lt;/b&gt;&lt;/font&gt;" style="text;html=1;strokeColor=none;fillColor=none;align=center;verticalAlign=middle;whiteSpace=wrap;rounded=0;fontSize=18;fontColor=#080808;" vertex="1" parent="1">
                    <mxGeometry x="170" y="910" width="60" height="30" as="geometry"/>
                </mxCell>
                <mxCell id="96" value="" style="curved=1;endArrow=classic;html=1;strokeColor=#080808;spacing=5;targetPerimeterSpacing=5;sourcePerimeterSpacing=5;strokeWidth=3;entryX=0.5;entryY=0;entryDx=0;entryDy=0;exitX=0;exitY=1;exitDx=0;exitDy=0;" edge="1" parent="1" source="81" target="82">
                    <mxGeometry width="50" height="50" relative="1" as="geometry">
                        <mxPoint x="430" y="970" as="sourcePoint"/>
                        <mxPoint x="630" y="970" as="targetPoint"/>
                        <Array as="points"/>
                    </mxGeometry>
                </mxCell>
                <mxCell id="97" value="&lt;b&gt;控制滑橇进场&lt;/b&gt;" style="shape=cylinder3;whiteSpace=wrap;html=1;boundedLbl=1;backgroundOutline=1;size=15;rounded=1;fontSize=18;fontColor=#080808;strokeColor=#0000FF;strokeWidth=3;fillColor=none;" vertex="1" parent="1">
                    <mxGeometry x="-580" y="400" width="120" height="80" as="geometry"/>
                </mxCell>
                <mxCell id="99" value="&lt;b&gt;报警&lt;/b&gt;" style="shape=cylinder3;whiteSpace=wrap;html=1;boundedLbl=1;backgroundOutline=1;size=15;rounded=1;fontSize=18;fontColor=#080808;strokeColor=#0000FF;strokeWidth=3;fillColor=none;" vertex="1" parent="1">
                    <mxGeometry x="-580" y="520" width="120" height="80" as="geometry"/>
                </mxCell>
                <mxCell id="101" value="&lt;b&gt;&lt;font color=&quot;#080808&quot;&gt;记录结果并输出&lt;/font&gt;&lt;/b&gt;" style="ellipse;whiteSpace=wrap;html=1;rounded=1;fontSize=18;fontColor=#0000FF;strokeColor=#080808;strokeWidth=5;fillColor=none;dashed=1;" vertex="1" parent="1">
                    <mxGeometry x="540" y="960" width="170" height="80" as="geometry"/>
                </mxCell>
                <mxCell id="103" value="" style="curved=1;endArrow=classic;html=1;strokeColor=#080808;spacing=5;targetPerimeterSpacing=5;sourcePerimeterSpacing=5;strokeWidth=3;entryX=0;entryY=0.5;entryDx=0;entryDy=0;exitX=1;exitY=0.5;exitDx=0;exitDy=0;" edge="1" parent="1" source="82" target="101">
                    <mxGeometry width="50" height="50" relative="1" as="geometry">
                        <mxPoint x="589.8959235991438" y="1050.0042712474617" as="sourcePoint"/>
                        <mxPoint x="260" y="1121.72" as="targetPoint"/>
                        <Array as="points"/>
                    </mxGeometry>
                </mxCell>
                <mxCell id="105" value="" style="curved=1;endArrow=classic;html=1;strokeColor=#080808;spacing=5;targetPerimeterSpacing=5;sourcePerimeterSpacing=5;strokeWidth=3;entryX=1;entryY=0.5;entryDx=0;entryDy=0;exitX=0;exitY=0.5;exitDx=0;exitDy=0;entryPerimeter=0;" edge="1" parent="1" source="82" target="97">
                    <mxGeometry width="50" height="50" relative="1" as="geometry">
                        <mxPoint x="-250" y="840" as="sourcePoint"/>
                        <mxPoint x="-10" y="900" as="targetPoint"/>
                        <Array as="points">
                            <mxPoint x="-50" y="950"/>
                            <mxPoint x="-160" y="850"/>
                            <mxPoint x="-130" y="550"/>
                        </Array>
                    </mxGeometry>
                </mxCell>
                <mxCell id="106" value="" style="curved=1;endArrow=classic;html=1;strokeColor=#FF0000;spacing=5;targetPerimeterSpacing=5;sourcePerimeterSpacing=5;strokeWidth=3;entryX=0.505;entryY=1.088;entryDx=0;entryDy=0;entryPerimeter=0;exitX=0.5;exitY=1;exitDx=0;exitDy=0;" edge="1" parent="1" source="82" target="99">
                    <mxGeometry width="50" height="50" relative="1" as="geometry">
                        <mxPoint x="20" y="1110" as="sourcePoint"/>
                        <mxPoint x="-140" y="940" as="targetPoint"/>
                        <Array as="points">
                            <mxPoint x="70" y="1080"/>
                            <mxPoint x="-250" y="1010"/>
                            <mxPoint x="-310" y="730"/>
                        </Array>
                    </mxGeometry>
                </mxCell>
                <mxCell id="108" value="&lt;font color=&quot;#ff0000&quot;&gt;&lt;b&gt;是&lt;/b&gt;&lt;/font&gt;" style="text;html=1;strokeColor=none;fillColor=none;align=center;verticalAlign=middle;whiteSpace=wrap;rounded=0;fontSize=18;fontColor=#080808;" vertex="1" parent="1">
                    <mxGeometry x="40" y="1030" width="60" height="30" as="geometry"/>
                </mxCell>
                <mxCell id="109" value="&lt;font color=&quot;#ff0000&quot;&gt;&lt;b&gt;否&lt;/b&gt;&lt;/font&gt;" style="text;html=1;strokeColor=none;fillColor=none;align=center;verticalAlign=middle;whiteSpace=wrap;rounded=0;fontSize=18;fontColor=#080808;" vertex="1" parent="1">
                    <mxGeometry x="50" y="960" width="60" height="30" as="geometry"/>
                </mxCell>
                <mxCell id="111" value="" style="rounded=1;whiteSpace=wrap;html=1;dashed=1;fontSize=18;fontColor=#080808;strokeColor=#0000FF;strokeWidth=3;fillColor=none;" vertex="1" parent="1">
                    <mxGeometry x="-590" y="350" width="160" height="290" as="geometry"/>
                </mxCell>
                <mxCell id="112" value="" style="endArrow=classic;html=1;fontSize=18;fontColor=#080808;sourcePerimeterSpacing=5;targetPerimeterSpacing=5;strokeColor=#008C46;strokeWidth=3;exitX=1;exitY=0.5;exitDx=0;exitDy=0;entryX=0;entryY=0.5;entryDx=0;entryDy=0;entryPerimeter=0;" edge="1" parent="1" source="6" target="97">
                    <mxGeometry width="50" height="50" relative="1" as="geometry">
                        <mxPoint x="-380" y="340" as="sourcePoint"/>
                        <mxPoint x="-350" y="440" as="targetPoint"/>
                    </mxGeometry>
                </mxCell>
                <mxCell id="115" value="" style="endArrow=classic;html=1;fontSize=18;fontColor=#080808;sourcePerimeterSpacing=5;targetPerimeterSpacing=5;strokeColor=#008C46;strokeWidth=3;exitX=1;exitY=0.5;exitDx=0;exitDy=0;exitPerimeter=0;entryX=0;entryY=0;entryDx=0;entryDy=30;entryPerimeter=0;" edge="1" parent="1" source="97" target="117">
                    <mxGeometry width="50" height="50" relative="1" as="geometry">
                        <mxPoint x="-150" y="390" as="sourcePoint"/>
                        <mxPoint x="-100" y="340" as="targetPoint"/>
                        <Array as="points"/>
                    </mxGeometry>
                </mxCell>
                <mxCell id="117" value="滑橇识别机" style="shape=cube;whiteSpace=wrap;html=1;boundedLbl=1;backgroundOutline=1;darkOpacity=0.05;darkOpacity2=0.1;rounded=1;fontSize=18;fontColor=#080808;strokeColor=#0000FF;strokeWidth=3;fillColor=none;" vertex="1" parent="1">
                    <mxGeometry x="-360" y="400" width="120" height="80" as="geometry"/>
                </mxCell>
                <mxCell id="118" value="" style="endArrow=classic;html=1;fontSize=18;fontColor=#080808;sourcePerimeterSpacing=5;targetPerimeterSpacing=5;strokeColor=#008C46;strokeWidth=3;exitX=0.055;exitY=0.011;exitDx=0;exitDy=0;exitPerimeter=0;entryX=0;entryY=0.5;entryDx=0;entryDy=0;" edge="1" parent="1" source="123" target="2">
                    <mxGeometry width="50" height="50" relative="1" as="geometry">
                        <mxPoint x="-170" y="431" as="sourcePoint"/>
                        <mxPoint x="-60" y="120" as="targetPoint"/>
                        <Array as="points">
                            <mxPoint x="-55" y="120"/>
                        </Array>
                    </mxGeometry>
                </mxCell>
                <mxCell id="119" value="" style="endArrow=classic;html=1;fontSize=18;fontColor=#080808;sourcePerimeterSpacing=5;targetPerimeterSpacing=5;strokeColor=#008C46;strokeWidth=3;exitX=0;exitY=0;exitDx=120;exitDy=50;exitPerimeter=0;entryX=0.024;entryY=0.045;entryDx=0;entryDy=0;entryPerimeter=0;" edge="1" parent="1" source="117" target="123">
                    <mxGeometry width="50" height="50" relative="1" as="geometry">
                        <mxPoint x="-33.44" y="481.04" as="sourcePoint"/>
                        <mxPoint x="-200" y="110" as="targetPoint"/>
                        <Array as="points"/>
                    </mxGeometry>
                </mxCell>
                <mxCell id="120" value="&lt;b&gt;&lt;font color=&quot;#008c46&quot;&gt;滑橇ID&lt;/font&gt;&lt;/b&gt;" style="text;html=1;strokeColor=none;fillColor=none;align=center;verticalAlign=middle;whiteSpace=wrap;rounded=0;fontSize=18;fontColor=#080808;" vertex="1" parent="1">
                    <mxGeometry x="-170" y="450" width="60" height="30" as="geometry"/>
                </mxCell>
                <mxCell id="122" value="&lt;b&gt;&lt;font color=&quot;#0000ff&quot;&gt;PLC&lt;/font&gt;&lt;/b&gt;" style="text;html=1;strokeColor=none;fillColor=none;align=center;verticalAlign=middle;whiteSpace=wrap;rounded=0;fontSize=18;fontColor=#008C46;" vertex="1" parent="1">
                    <mxGeometry x="-550" y="310" width="60" height="30" as="geometry"/>
                </mxCell>
                <mxCell id="123" value="" style="rounded=1;whiteSpace=wrap;html=1;fontSize=18;fontColor=#0000FF;strokeColor=#008C46;strokeWidth=3;fillColor=none;dashed=1;" vertex="1" parent="1">
                    <mxGeometry x="-110" y="500" width="1000" height="570" as="geometry"/>
                </mxCell>
                <mxCell id="124" value="&lt;b&gt;&lt;font style=&quot;font-size: 24px&quot; color=&quot;#008c46&quot;&gt;上位机&lt;/font&gt;&lt;/b&gt;" style="text;html=1;strokeColor=none;fillColor=none;align=center;verticalAlign=middle;whiteSpace=wrap;rounded=0;dashed=1;fontSize=18;fontColor=#0000FF;" vertex="1" parent="1">
                    <mxGeometry x="-70" y="540" width="90" height="30" as="geometry"/>
                </mxCell>
            </root>
        </mxGraphModel>
    </diagram>
</mxfile>